<?xml version="1.0" encoding="iso-8859-1"?>
<!-- Generator: Adobe Illustrator 19.0.0, SVG Export Plug-In . SVG Version: 6.00 Build 0)  -->
<svg version="1.1" id="Layer_1" xmlns="http://www.w3.org/2000/svg" xmlns:xlink="http://www.w3.org/1999/xlink" x="0px" y="0px"
	 viewBox="0 0 511.992 511.992" style="enable-background:new 0 0 511.992 511.992;" xml:space="preserve">
<rect x="240" y="358.988" width="32" height="77.528"/>
<polygon points="155.904,456.428 166.568,424.428 345.432,424.428 356.096,456.428 "/>
<path d="M37.296,362.62C21.144,362.62,8,349.476,8,333.316V92.868c0-16.16,13.144-29.296,29.296-29.296h437.408
	c16.16,0,29.296,13.144,29.296,29.296v240.456c0,16.16-13.144,29.296-29.296,29.296H37.296z"/>
<path d="M474.704,71.564c11.744,0,21.296,9.552,21.296,21.296v240.456c0,11.744-9.552,21.296-21.296,21.296H37.296
	C25.552,354.612,16,345.06,16,333.316V92.86c0-11.744,9.552-21.296,21.296-21.296H474.704 M474.704,55.564H37.296
	C16.784,55.564,0,72.348,0,92.86v240.456c0,20.512,16.784,37.296,37.296,37.296h437.4c20.512,0,37.296-16.784,37.296-37.296V92.86
	C512,72.348,495.216,55.564,474.704,55.564L474.704,55.564z"/>
<path style="fill:#FF583E;" d="M242.616,314.9v-23.968c-16.92-0.76-33.32-5.304-42.928-10.856l7.584-29.544
	c10.608,5.8,25.488,11.104,41.92,11.104c14.392,0,24.24-5.552,24.24-15.648c0-9.6-8.08-15.664-26.768-21.976
	c-27.016-9.088-45.456-21.712-45.456-46.192c0-22.224,15.664-39.632,42.68-44.936v-23.992h24.728v22.224
	c16.92,0.76,28.288,4.28,36.616,8.328l-7.32,28.536c-6.56-2.776-18.176-8.592-36.368-8.592c-16.408,0-21.712,7.072-21.712,14.144
	c0,8.328,8.84,13.632,30.304,21.712c30.032,10.608,42.16,24.488,42.16,47.224c0,22.472-15.912,41.648-44.936,46.704v25.736h-24.744
	V314.9z"/>
<g>
	<path style="fill:#FFFFFF;" d="M130.36,278.7v-15.544c-10.976-0.496-21.608-3.44-27.84-7.04l4.92-19.16
		c6.88,3.76,16.536,7.2,27.184,7.2c9.336,0,15.72-3.6,15.72-10.144c0-6.224-5.24-10.16-17.36-14.256
		c-17.52-5.896-29.48-14.08-29.48-29.96c0-14.416,10.16-25.704,27.68-29.144v-15.56h16.04v14.416
		c10.976,0.496,18.344,2.776,23.744,5.4l-4.744,18.504c-4.256-1.8-11.784-5.576-23.584-5.576c-10.64,0-14.08,4.584-14.08,9.176
		c0,5.4,5.736,8.84,19.648,14.08c19.48,6.88,27.344,15.88,27.344,30.624c0,14.576-10.32,27.008-29.144,30.288V278.7L130.36,278.7
		L130.36,278.7z"/>
	<path style="fill:#FFFFFF;" d="M364.28,278.7v-15.544c-10.976-0.496-21.608-3.44-27.84-7.04l4.92-19.16
		c6.88,3.76,16.536,7.2,27.184,7.2c9.336,0,15.72-3.6,15.72-10.144c0-6.224-5.24-10.16-17.36-14.256
		c-17.52-5.896-29.48-14.08-29.48-29.96c0-14.416,10.16-25.704,27.68-29.144v-15.56h16.04v14.416
		c10.976,0.496,18.344,2.776,23.744,5.4l-4.744,18.504c-4.256-1.8-11.784-5.576-23.584-5.576c-10.64,0-14.08,4.584-14.08,9.176
		c0,5.4,5.736,8.84,19.648,14.08c19.48,6.88,27.344,15.88,27.344,30.624c0,14.576-10.32,27.008-29.144,30.288V278.7L364.28,278.7
		L364.28,278.7z"/>
</g>
<g>
</g>
<g>
</g>
<g>
</g>
<g>
</g>
<g>
</g>
<g>
</g>
<g>
</g>
<g>
</g>
<g>
</g>
<g>
</g>
<g>
</g>
<g>
</g>
<g>
</g>
<g>
</g>
<g>
</g>
</svg>
