<?xml version="1.0" standalone="no"?>
<!DOCTYPE svg PUBLIC "-//W3C//DTD SVG 20010904//EN"
 "http://www.w3.org/TR/2001/REC-SVG-20010904/DTD/svg10.dtd">
<svg version="1.0" xmlns="http://www.w3.org/2000/svg"
 width="588.000000pt" height="503.000000pt" viewBox="0 0 588.000000 503.000000"
 preserveAspectRatio="xMidYMid meet">

<g transform="translate(0.000000,503.000000) scale(0.100000,-0.100000)"
fill="#000000" stroke="none">
<path d="M0 5020 c0 -7 987 -10 2940 -10 1953 0 2940 3 2940 10 0 7 -987 10
-2940 10 -1953 0 -2940 -3 -2940 -10z"/>
<path d="M2524 4890 c-105 -9 -165 -41 -264 -140 -74 -73 -106 -122 -220 -332
-35 -65 -70 -107 -160 -198 -120 -119 -169 -181 -188 -239 -16 -45 -16 -262 0
-298 21 -49 86 -140 144 -203 l57 -61 -133 3 -134 3 -87 305 c-83 289 -90 307
-123 338 l-36 32 -375 0 c-415 0 -417 0 -455 -63 -31 -50 -26 -109 11 -151 17
-20 47 -40 67 -46 21 -6 158 -10 319 -10 l282 0 21 -72 c12 -40 39 -131 60
-203 21 -71 73 -249 115 -395 117 -404 241 -835 365 -1260 62 -212 147 -506
190 -654 73 -255 79 -272 114 -303 l36 -33 1312 0 c1030 0 1318 3 1338 13 39
20 70 74 70 123 0 45 -29 91 -74 117 -16 9 -307 13 -1260 17 l-1239 5 -52 180
c-29 99 -50 183 -48 188 2 4 568 7 1256 7 1207 0 1253 1 1283 19 31 19 64 74
64 106 0 10 -5 34 -11 54 -11 38 -12 34 402 1251 46 137 57 159 90 188 62 53
72 120 28 183 -35 50 -80 59 -289 59 -146 0 -190 3 -190 13 1 39 27 112 78
215 l57 117 3 137 c5 190 -4 218 -114 324 -91 88 -111 123 -121 215 -10 102
-67 166 -238 267 -126 74 -275 114 -565 152 -91 12 -257 25 -370 29 -259 10
-909 11 -1016 1z m991 -71 c270 -11 473 -32 489 -50 15 -16 -417 -4 -544 16
-127 20 -359 19 -456 -1 -173 -35 -375 -133 -552 -266 -74 -55 -57 -60 20 -6
57 40 88 59 210 127 64 35 220 98 283 115 144 37 354 38 570 4 39 -6 214 -14
390 -18 l320 -7 74 -31 c88 -37 216 -113 260 -154 44 -41 59 -76 71 -158 13
-93 23 -111 115 -200 91 -90 102 -108 115 -199 16 -112 1 -186 -66 -320 -40
-82 -59 -135 -66 -183 l-10 -68 -73 0 -72 0 -6 98 c-9 137 -25 212 -53 252
-13 20 -26 50 -30 68 -8 40 -27 57 -42 39 -7 -7 -18 -46 -27 -86 -25 -122 -47
-148 -180 -214 -152 -76 -350 -102 -602 -77 -226 21 -368 55 -738 172 -322
102 -605 234 -605 282 0 8 -7 20 -16 27 -14 11 -18 10 -30 -6 -8 -11 -19 -36
-24 -55 -13 -47 -42 -73 -115 -102 -88 -35 -75 -64 31 -67 51 -1 76 -26 80
-81 2 -29 14 -55 46 -97 25 -32 59 -79 77 -105 l32 -48 -197 0 c-189 0 -199 1
-221 22 -28 26 -30 42 -3 35 40 -10 19 13 -35 38 -125 59 -223 252 -194 384
13 61 68 149 140 222 56 57 52 55 204 88 l40 9 -52 1 c-30 1 -53 6 -53 12 0 6
11 25 24 42 13 18 53 89 88 158 80 155 102 188 179 265 73 75 144 115 218 124
88 12 721 11 986 -1z m-1068 -1048 c65 -33 127 -69 138 -81 23 -25 34 -133 16
-145 -13 -7 -146 53 -219 99 -47 29 -77 71 -93 129 -20 75 4 75 158 -2z m393
-158 c63 -19 136 -40 162 -47 58 -16 101 -43 94 -61 -2 -7 -8 -30 -12 -49 l-6
-36 -59 0 c-37 0 -90 11 -151 30 -81 27 -99 37 -135 77 -53 59 -70 97 -53 118
7 9 20 13 29 10 9 -4 68 -22 131 -42z m1660 1 c0 -8 -4 -12 -10 -9 -5 3 -10
13 -10 21 0 8 5 12 10 9 6 -3 10 -13 10 -21z m-53 -110 c29 -78 28 -84 -6 -84
-35 0 -41 13 -41 92 0 76 17 74 47 -8z m-1923 -23 c91 -47 95 -61 18 -61 l-60
0 -36 49 c-20 27 -36 52 -36 56 0 10 40 -5 114 -44z m1804 -19 l3 -42 -61 0
c-58 0 -61 1 -58 22 3 24 72 70 98 65 10 -1 16 -16 18 -45z m-1002 14 c65 -13
133 -30 149 -38 27 -12 11 -13 -144 -16 -96 -1 -176 -1 -178 2 -9 8 27 76 40
76 7 0 67 -11 133 -24z m784 -46 c10 -7 -7 -9 -55 -8 -61 1 -65 2 -30 8 59 11
69 11 85 0z m-437 -7 c-13 -2 -35 -2 -50 0 -16 2 -5 4 22 4 28 0 40 -2 28 -4z
m-1282 -328 c48 -371 59 -457 59 -461 0 -2 -134 -3 -297 -2 l-297 3 -73 250
c-40 138 -73 253 -73 258 0 4 152 6 338 5 l337 -3 6 -50z m799 -205 l0 -260
-234 0 -235 0 -6 43 c-22 165 -55 436 -55 455 l0 22 265 0 265 0 0 -260z m804
252 c2 -4 -10 -120 -27 -257 l-32 -250 -237 -3 -238 -2 0 253 c0 140 3 257 7
260 9 10 521 9 527 -1z m938 2 c4 -3 -33 -120 -80 -260 l-87 -254 -277 0 -278
0 0 25 c0 24 44 382 56 458 l6 37 327 0 c180 0 330 -3 333 -6z m-2447 -796 c5
-17 65 -481 65 -508 0 -20 -4 -20 -227 -18 l-227 3 -13 35 c-15 43 -143 483
-143 493 0 4 122 7 270 7 208 0 272 -3 275 -12z m705 -258 l0 -270 -180 0
c-135 0 -182 3 -185 13 -6 15 -65 474 -65 505 l0 22 215 0 215 0 0 -270z m706
233 c-3 -21 -17 -130 -31 -243 -14 -113 -28 -217 -31 -233 l-6 -27 -181 2
-182 3 -3 255 c-1 140 0 260 3 267 3 10 55 13 221 13 l216 0 -6 -37z m774 30
c0 -5 -40 -125 -89 -268 l-88 -260 -188 -3 c-104 -1 -192 1 -196 5 -3 5 8 123
27 263 18 140 33 258 33 263 1 4 114 7 251 7 138 0 250 -3 250 -7z"/>
<path d="M3062 4684 c-57 -7 -129 -20 -160 -29 -132 -38 -301 -135 -381 -219
-51 -53 -29 -56 26 -5 137 127 312 206 523 234 144 20 234 19 395 -5 168 -25
452 -30 636 -11 116 12 129 12 163 -4 37 -18 54 -16 42 4 -17 28 -85 31 -282
15 -230 -19 -390 -14 -569 16 -136 22 -243 23 -393 4z"/>
<path d="M3010 4589 c-156 -16 -274 -69 -384 -170 -76 -70 -49 -70 35 1 139
116 242 149 504 157 101 4 169 10 155 14 -33 9 -215 8 -310 -2z"/>
<path d="M3290 4552 c0 -5 9 -21 20 -35 11 -14 29 -45 39 -69 l20 -43 0 34 c1
37 -30 96 -60 111 -10 6 -19 7 -19 2z"/>
<path d="M3912 4548 c-84 -9 -139 -24 -129 -34 3 -3 57 2 121 11 168 25 246
18 321 -26 33 -19 69 -49 80 -66 47 -71 46 -71 40 -33 -7 44 -51 90 -123 126
-48 25 -70 29 -142 31 -47 1 -123 -3 -168 -9z"/>
<path d="M3824 4425 c-7 -19 -14 -51 -13 -72 l0 -38 16 50 c8 28 19 54 24 60
12 12 11 35 -2 35 -5 0 -17 -16 -25 -35z"/>
<path d="M2845 4355 c-84 -15 -156 -50 -207 -99 -50 -49 -59 -83 -27 -109 20
-16 34 -18 94 -13 282 25 336 19 498 -55 100 -46 114 -45 181 16 51 46 50 85
-3 135 -53 50 -173 115 -239 129 -69 14 -208 13 -297 -4z m355 -97 c82 -37
130 -74 130 -98 0 -36 -42 -35 -128 4 -44 20 -86 36 -95 36 -45 0 -57 23 -37
75 12 31 31 28 130 -17z m-438 -33 c-4 -13 -68 -35 -77 -27 -10 10 38 42 60
39 11 -1 19 -6 17 -12z"/>
<path d="M3995 4280 c-61 -13 -91 -26 -156 -71 -33 -22 -77 -43 -97 -45 -101
-14 -106 -26 -29 -75 l52 -34 6 -73 c6 -83 23 -112 84 -146 80 -45 77 -93 -10
-175 -57 -54 -85 -62 -123 -35 -18 12 -26 13 -37 4 -42 -35 16 -90 93 -90 39
0 49 6 123 76 71 65 85 74 108 69 19 -4 32 -1 41 10 17 21 65 13 132 -21 49
-25 68 -29 68 -16 0 11 -48 38 -97 55 -23 8 -68 37 -100 66 -32 29 -89 73
-128 99 -65 44 -71 51 -79 93 -5 26 -6 58 -3 72 11 42 86 62 361 97 49 6 98
16 108 21 33 17 19 59 -30 93 -40 29 -49 31 -145 33 -56 1 -120 -2 -142 -7z
m152 -66 c-3 -3 -12 -4 -19 -1 -8 3 -5 6 6 6 11 1 17 -2 13 -5z"/>
<path d="M2440 4203 c-8 -2 -22 -7 -30 -10 -12 -4 -12 -7 4 -19 25 -18 67 -19
60 -1 -3 8 5 18 18 25 22 10 22 11 -7 11 -16 -1 -37 -3 -45 -6z"/>
<path d="M4385 4192 c-15 -16 20 -22 126 -22 128 0 141 -4 201 -54 20 -17 48
-39 62 -49 63 -44 83 -142 52 -256 -19 -70 -36 -87 -126 -129 -43 -21 -68 -37
-58 -39 27 -6 141 51 170 85 72 86 57 320 -23 363 -13 7 -45 29 -72 50 -26 21
-62 40 -80 43 -46 7 -246 14 -252 8z"/>
<path d="M2090 4183 c-106 -10 -122 -15 -161 -50 -22 -20 -52 -56 -66 -80 -24
-42 -25 -47 -22 -201 4 -150 5 -159 32 -204 22 -38 39 -53 91 -78 68 -32 76
-34 76 -22 0 4 -27 22 -60 40 -104 58 -123 101 -124 287 -1 113 1 123 26 165
14 25 42 60 61 78 32 31 42 34 143 47 60 7 99 13 87 14 -12 1 -27 3 -35 4 -7
2 -29 2 -48 0z"/>
<path d="M2514 4125 c-17 -13 -17 -14 -2 -15 9 0 20 5 23 11 11 17 0 20 -21 4z"/>
<path d="M2138 4111 c-112 -37 -198 -161 -198 -286 0 -95 55 -207 95 -192 20
8 19 32 -5 102 -28 82 -26 130 10 191 35 62 78 100 128 114 52 14 144 12 167
-3 84 -57 301 -114 394 -103 109 12 247 104 239 159 -5 33 -32 32 -71 -2 -46
-41 -140 -83 -198 -89 -55 -5 -128 15 -259 70 -83 36 -106 41 -185 44 -49 2
-102 0 -117 -5z"/>
<path d="M4625 4080 c3 -5 23 -19 45 -31 45 -25 58 -54 67 -147 6 -63 6 -63
-32 -102 -42 -43 -42 -63 0 -36 48 31 58 60 52 139 -9 112 -23 143 -72 167
-44 21 -70 26 -60 10z"/>
<path d="M4403 4020 c-12 -5 -45 -25 -74 -44 -55 -39 -80 -43 -119 -21 -52 30
-93 8 -69 -37 15 -27 68 -48 143 -55 69 -6 61 -10 124 65 26 32 31 34 88 33
43 0 75 -7 108 -23 43 -20 47 -21 63 -6 15 16 15 19 -1 43 -10 15 -33 33 -51
41 -38 16 -176 18 -212 4z"/>
<path d="M3130 3842 c0 -32 -20 -39 -135 -46 -60 -4 -114 -12 -120 -18 -7 -7
23 -9 107 -4 139 7 168 16 168 50 0 14 -4 28 -10 31 -5 3 -10 -3 -10 -13z"/>
<path d="M3234 3846 c-45 -20 -64 -52 -64 -108 0 -59 14 -90 50 -111 37 -22
47 -21 60 4 9 17 7 26 -14 54 -47 61 -27 96 62 110 25 4 46 14 49 22 15 38
-79 57 -143 29z"/>
<path d="M3358 3734 c-26 -8 -32 -41 -13 -70 15 -23 17 -24 38 -9 15 10 46 15
98 15 90 0 118 17 75 45 -25 17 -162 30 -198 19z"/>
<path d="M2520 714 c-102 -37 -183 -121 -222 -231 -27 -77 -22 -198 11 -262
49 -94 179 -196 260 -203 14 -2 -559 -5 -1274 -8 -786 -3 -136 -5 1645 -5
1620 0 2592 2 2160 5 -432 3 -776 6 -764 8 41 4 143 63 179 104 21 22 51 70
68 107 28 57 32 77 31 146 0 64 -6 91 -27 137 -34 75 -102 147 -174 184 -53
26 -67 29 -158 29 -84 0 -107 -4 -147 -23 -108 -53 -186 -158 -207 -278 -32
-174 79 -341 264 -400 33 -10 -91 -13 -715 -12 -415 0 -741 3 -725 7 229 56
346 342 221 540 -33 52 -110 119 -164 144 -63 28 -199 34 -262 11z"/>
</g>
</svg>
